<?xml version="1.0" encoding="UTF-8" standalone="no"?>
<svg
   width="1093.7649"
   height="194.40216"
   viewBox="0 0 1093.7642 194.40207"
   role="img"
   aria-label="VERITACLIS logo"
   version="1.1"
   id="svg3"
   xmlns:xlink="http://www.w3.org/1999/xlink"
   xmlns="http://www.w3.org/2000/svg"
   xmlns:svg="http://www.w3.org/2000/svg">
  <defs
     id="defs3">
    <linearGradient
       id="linearGradient426"
       x1="297.58084"
       x2="297.81421"
       y1="394.37024"
       y2="587.92706"
       gradientTransform="scale(2.9770814,0.33589945)"
       gradientUnits="userSpaceOnUse"
       spreadMethod="pad">
      <stop
         offset="0"
         stop-color="#FFD66B"
         id="stop424"
         style="stop-color:#f4c100;stop-opacity:1;" />
      <stop
         offset="0.28662878"
         stop-color="#D4AF37"
         id="stop425" />
      <stop
         offset="100%"
         stop-color="#B8860B"
         id="stop426" />
    </linearGradient>
    <linearGradient
       xlink:href="#linearGradient426"
       id="linearGradient421"
       x1="311.82166"
       y1="131.88304"
       x2="309.63876"
       y2="192.3147"
       gradientUnits="userSpaceOnUse"
       gradientTransform="translate(0,0.94838893)" />
    <linearGradient
       xlink:href="#linearGradient426"
       id="linearGradient430"
       gradientUnits="userSpaceOnUse"
       gradientTransform="translate(0,0.94838893)"
       x1="311.82166"
       y1="131.88304"
       x2="309.63876"
       y2="192.3147" />
    <linearGradient
       xlink:href="#linearGradient426"
       id="linearGradient431"
       gradientUnits="userSpaceOnUse"
       gradientTransform="translate(0,0.94838893)"
       x1="311.82166"
       y1="131.88304"
       x2="309.63876"
       y2="192.3147" />
    <linearGradient
       xlink:href="#linearGradient426"
       id="linearGradient432"
       gradientUnits="userSpaceOnUse"
       gradientTransform="translate(0,0.94838893)"
       x1="311.82166"
       y1="131.88304"
       x2="309.63876"
       y2="192.3147" />
  </defs>
  <!-- Full word rendered in three tspans but without added gaps; CLI has tighter tracking -->
  <!-- Underline drawn precisely under the CLI letters.
       Values chosen for current font-size and positioning; adjust transform x for exact centering if needed. -->
  <g
     id="g428"
     transform="matrix(1.8981239,0,0,1.8981239,-589.14503,-217.74518)">
    <g
       id="text3"
       style="font-weight:700;font-size:96px;font-family:Cinzel, 'Times New Roman', serif;dominant-baseline:middle;text-anchor:middle;fill:url(#linearGradient421)"
       aria-label="VERITACLIS">
      <path
         d="m 377.55469,134.12027 v 3.42187 l -5.95313,1.26563 -24.28125,59.625 h -6.23437 l -25.54688,-59.625 -5.15625,-1.26563 v -3.42187 h 27.32813 v 3.42187 l -6.51563,1.26563 17.67188,41.20312 16.5,-41.20312 -6.32813,-1.26563 v -3.42187 z m 2.71875,59.4375 8.0625,-1.26563 v -53.53125 l -8.0625,-1.21875 v -3.42187 h 53.53125 v 15.98437 h -4.26563 l -1.5,-10.17187 q -5.25,-0.65625 -15.1875,-0.65625 h -9.75 v 23.0625 h 16.45313 l 1.45312,-6.9375 h 4.17188 v 19.3125 h -4.17188 l -1.45312,-7.125 h -16.45313 v 24.23437 h 11.85938 q 12.09375,0 15.84375,-0.75 l 2.67187,-11.625 h 4.26563 l -0.89063,17.53125 h -56.57812 z m 86.90625,-23.20313 v 21.9375 l 8.0625,1.26563 v 3.42187 h -30.32813 v -3.42187 l 7.45313,-1.26563 v -53.53125 l -8.0625,-1.21875 v -3.42187 h 30.04687 q 13.875,0 20.71875,4.26562 6.84375,4.26563 6.84375,13.3125 0,13.5 -12.65625,17.34375 l 16.78125,23.25 6.79688,1.26563 v 3.42187 h -20.34375 l -17.53125,-26.625 z m 20.10937,-18.5625 q 0,-7.03125 -2.90625,-9.75 -2.90625,-2.76562 -10.64062,-2.76562 h -6.5625 v 25.92187 h 6.79687 q 7.21875,0 10.26563,-3 3.04687,-3 3.04687,-10.40625 z m 50.76563,40.5 8.0625,1.21875 v 3.46875 h -30.89063 v -3.46875 l 8.0625,-1.21875 v -53.48437 l -8.0625,-1.26563 v -3.42187 h 30.89063 v 3.42187 l -8.0625,1.26563 z m 25.82812,4.6875 v -3.42187 l 9.98438,-1.26563 v -53.20312 h -2.39063 q -10.73437,0 -15.09375,0.9375 l -1.26562,11.67187 h -4.26563 v -17.57812 h 61.07813 v 17.57812 h -4.3125 l -1.26563,-11.67187 q -3.89062,-0.84375 -15.375,-0.84375 h -2.29687 v 53.10937 l 9.98437,1.26563 v 3.42187 z m 62.4375,-3.42187 v 3.42187 h -19.125 v -3.42187 l 4.6875,-1.26563 22.35938,-58.6875 h 13.59375 l 22.26562,58.6875 4.78125,1.26563 v 3.42187 h -27.98437 v -3.42187 l 7.26562,-1.26563 -6,-16.26562 h -24.14062 l -5.76563,16.26562 z m 9.98438,-50.48438 -10.35938,27.79688 h 20.4375 z"
         id="path428"
         style="fill:url(#linearGradient430)" />
      <path
         style="letter-spacing:-3;fill:url(#linearGradient431)"
         d="m 713.78906,197.91714 q -15.79687,0 -24.65625,-8.39062 -8.85937,-8.39063 -8.85937,-23.25 0,-16.125 8.4375,-24.46875 8.48437,-8.39063 25.03125,-8.39063 10.92187,0 22.64062,3.14063 l 0.28125,15.09375 h -4.21875 l -1.3125,-9.09375 q -6.1875,-4.21875 -14.39062,-4.21875 -10.875,0 -15.89063,6.79687 -5.01562,6.75 -5.01562,21 0,13.17188 5.25,20.0625 5.25,6.89063 15.28125,6.89063 5.29687,0 9.23437,-1.40625 3.98438,-1.40625 6.23438,-3.32813 l 1.5,-10.3125 h 4.26562 l -0.28125,15.9375 q -4.21875,1.64063 -10.96875,2.8125 -6.75,1.125 -12.5625,1.125 z m 62.29688,-60.375 -9.70313,1.21875 v 53.25 h 12.79688 q 9.98437,0 14.67187,-0.9375 l 3.84375,-13.07812 h 4.21875 l -1.78125,18.98437 h -56.57812 v -3.42187 l 8.0625,-1.26563 v -53.53125 l -8.01563,-1.21875 v -3.42187 h 32.48438 z m 52.92187,54.75 8.0625,1.21875 v 3.46875 h -30.89062 v -3.46875 l 8.0625,-1.21875 v -53.48437 l -8.0625,-1.26563 v -3.42187 h 30.89062 v 3.42187 l -8.0625,1.26563 z"
         id="path429" />
      <path
         d="m 842.41406,177.71402 h 4.125 l 2.10938,10.07812 q 1.96875,2.29688 5.95312,3.84375 3.98438,1.54688 8.25,1.54688 13.45313,0 13.45313,-11.0625 0,-3.46875 -2.57813,-5.85938 -2.53125,-2.39062 -8.01562,-4.26562 -8.0625,-2.67188 -11.625,-4.3125 -3.51563,-1.6875 -5.95313,-3.9375 -2.4375,-2.25 -3.89062,-5.4375 -1.45313,-3.23438 -1.45313,-7.92188 0,-8.29687 5.625,-12.60937 5.67188,-4.35938 16.54688,-4.35938 7.875,0 17.4375,2.01563 v 14.95312 h -4.17188 l -2.10937,-8.625 q -4.78125,-3.46875 -11.15625,-3.46875 -5.76563,0 -8.85938,2.15625 -3.09375,2.10938 -3.09375,6.51563 0,3.14062 2.57813,5.39062 2.57812,2.20313 8.0625,3.9375 10.73437,3.51563 14.71875,6.14063 4.03125,2.57812 6.14062,6.42187 2.10938,3.84375 2.10938,9.04688 0,20.01562 -23.57813,20.01562 -5.39062,0 -11.01562,-0.9375 -5.57813,-0.89062 -9.60938,-2.39062 z"
         id="path430"
         style="fill:url(#linearGradient432)" />
    </g>
    <path
       id="rect428"
       style="opacity:0.928177;fill:#f4c100;stroke-width:5.96203;stroke-linecap:round"
       d="m 680.26025,114.716 h 157.01264 v 7.75 H 680.26025 Z" />
    <path
       id="rect428-0"
       style="opacity:0.928177;fill:#b8860b;stroke-width:5.96203;stroke-linecap:round"
       d="m 680.26031,209.384 h 157.01264 v 7.75 H 680.26031 Z" />
  </g>
</svg>
